<svg version="1.1" xmlns="http://www.w3.org/2000/svg" xmlns:xlink="http://www.w3.org/1999/xlink" width="300" height="300"><g data-paper-data="{&quot;description&quot;:&quot;Logo for GIS for Water\n======================\n\nThis logo was generated by MarkMaker and is composed of elements designed by others.\n\nThe font is Wendy One designed by Alejandro Inler and released under the OFL license via Google Fonts: https://www.google.com/fonts/specimen/Wendy One. The font includes this copyright statement: Copyright (c) 2012, Alejandro Inler (alejandroinler@gmail.com), with Reserved Font Name 'Wendy'\n\nMarkMaker uses semantic data from the Princeton University WordNet database http://wordnet.princeton.edu and font descriptions from Google Fonts https://www.google.com/fonts.\n\nThis design is inspired by designs that past users of MarkMaker have liked. As a result, it may be visually similar to past or future designs generated by the system. There is no guarantee that it is unique, original, or suitable in any way for use as a logo.\n\n&quot;}" fill="#4810cb" fill-rule="nonzero" stroke="#ade7e4" stroke-width="1.68144" stroke-linecap="butt" stroke-linejoin="miter" stroke-miterlimit="10" stroke-dasharray="" stroke-dashoffset="0" font-family="none" font-weight="none" font-size="none" text-anchor="none" style="mix-blend-mode: normal"><g data-paper-data="{&quot;elementType&quot;:&quot;logo&quot;}"><g data-paper-data="{&quot;elementType&quot;:&quot;text&quot;}"><g data-paper-data="{&quot;baseline&quot;:62,&quot;elementType&quot;:&quot;row&quot;}"><g data-paper-data="{&quot;baselineProportion&quot;:0.9841269841269841,&quot;fontSize&quot;:100,&quot;baseline&quot;:62,&quot;elementType&quot;:&quot;word&quot;}"><path d="M199.25663,79.48721v18.22883c-0.67227,0.67227 -1.80995,1.47382 -3.41306,2.40465c-1.6031,0.93083 -3.20621,1.70653 -4.80931,2.32708c-4.18875,1.75824 -8.84292,2.63736 -13.96251,2.63736c-8.53264,0 -14.98384,-2.08145 -19.35359,-6.24434c-4.36975,-4.1629 -6.55462,-10.20039 -6.55462,-18.11248c0,-7.91209 2.23659,-13.97544 6.70976,-18.19005c4.47317,-4.21461 10.69166,-6.32191 18.65546,-6.32191c6.20556,0 11.86813,1.29282 16.98772,3.87847c1.1894,0.56884 2.06852,1.06012 2.63736,1.47382l0.77569,0.62056l-3.41306,6.90368c-2.43051,-1.03426 -5.32644,-1.55139 -8.68778,-1.55139c-8.58436,0 -12.87654,4.44732 -12.87654,13.34195c0,4.60246 0.98255,8.19651 2.94764,10.78216c1.96509,2.58565 4.55074,3.87847 7.75695,3.87847c1.29282,0 2.55979,-0.25856 3.8009,-0.77569l-1.7841,-7.44667h-5.74014l1.55139,-7.83452z" data-paper-data="{&quot;elementType&quot;:&quot;letter&quot;,&quot;baseline&quot;:62,&quot;baselineProportion&quot;:0.9841269841269841,&quot;fontSize&quot;:100}"></path><path d="M207.40142,104.30945l-4.65417,-47.00711h24.43439l-4.65417,47.00711z" data-paper-data="{&quot;elementType&quot;:&quot;letter&quot;,&quot;baseline&quot;:60.6,&quot;baselineProportion&quot;:1,&quot;fontSize&quot;:100}"></path><path d="M263.98836,77.04377c0,0 0.42017,0.26503 1.2605,0.79509c0.84034,0.53006 1.84228,1.75178 3.00582,3.66516c1.16354,1.91338 1.74531,4.46025 1.74531,7.64059c0,3.18035 -1.0084,6.06335 -3.02521,8.649c-3.72334,4.86102 -9.38591,7.29153 -16.98772,7.29153c-3.30963,0 -6.58048,-0.47835 -9.81254,-1.43504c-3.23206,-0.95669 -5.62379,-1.92631 -7.17518,-2.90886l-2.32708,-1.39625l3.33549,-6.67098c3.72334,1.80995 7.08468,2.71493 10.08403,2.71493c2.99935,0 4.49903,-0.95669 4.49903,-2.87007c0,-1.08597 -0.58177,-2.1073 -1.74531,-3.06399c-1.16354,-0.95669 -2.58565,-1.8746 -4.26632,-2.75372c-1.68067,-0.87912 -3.36134,-1.90045 -5.04202,-3.06399c-1.68067,-1.16354 -3.10278,-2.7925 -4.26632,-4.88688c-1.16354,-2.09438 -1.74531,-4.53782 -1.74531,-7.33032c0,-4.96445 1.90045,-8.7395 5.70136,-11.32515c3.8009,-2.58565 8.39043,-3.87847 13.76858,-3.87847c3.20621,0 6.21849,0.38785 9.03685,1.16354c2.81836,0.77569 4.82224,1.55139 6.01164,2.32708l1.86167,1.16354l-3.02521,6.59341c-2.63736,-1.13769 -5.28765,-1.70653 -7.95087,-1.70653c-2.66322,0 -3.99483,1.0084 -3.99483,3.02521c0,1.08597 0.58177,2.06852 1.74531,2.94764c1.16354,0.87912 2.58565,1.71946 4.26632,2.52101c1.68067,0.80155 3.36134,1.73239 5.04202,2.7925z" data-paper-data="{&quot;elementType&quot;:&quot;letter&quot;,&quot;baseline&quot;:62,&quot;baselineProportion&quot;:0.9841269841269841,&quot;fontSize&quot;:100}"></path></g></g><g data-paper-data="{&quot;baseline&quot;:66.3,&quot;elementType&quot;:&quot;row&quot;}"><g data-paper-data="{&quot;baselineProportion&quot;:0.9851411589895989,&quot;fontSize&quot;:100,&quot;baseline&quot;:66.3,&quot;elementType&quot;:&quot;word&quot;}"><path d="M165.82418,136.89076c0,-4.7576 1.12476,-8.39043 3.37427,-10.89851c2.24952,-2.50808 6.06335,-3.76212 11.4415,-3.76212c2.3788,0 4.65417,0.33613 6.82612,1.0084l0.85326,7.52424c-0.77569,-0.20685 -1.55139,-0.31028 -2.32708,-0.31028c-2.53394,0 -3.8009,1.80995 -3.8009,5.42986v1.0084h4.73174l0.93083,10.08403h-5.19716l-1.16354,26.6839h-14.27279l-1.16354,-26.6839h-4.88688l0.93083,-10.08403z" data-paper-data="{&quot;elementType&quot;:&quot;letter&quot;,&quot;baseline&quot;:66.3,&quot;baselineProportion&quot;:1,&quot;fontSize&quot;:100}"></path><path d="M197.43374,169.819c0,0 -0.9373,-0.76923 -2.81189,-2.30769c-1.8746,-1.53846 -2.81189,-5.66904 -2.81189,-12.39173c0,-6.72269 1.8746,-11.6225 5.62379,-14.69942c3.74919,-3.07692 8.75242,-4.61538 15.0097,-4.61538c6.25727,0 11.2605,1.53846 15.0097,4.61538c3.74919,3.07692 5.62379,7.97673 5.62379,14.69942c0,6.72269 -1.8746,11.6225 -5.62379,14.69942c-3.74919,3.07692 -8.75242,4.61538 -15.0097,4.61538c-6.25727,0 -11.2605,-1.53846 -15.0097,-4.61538M209.18552,146.31545c0,0 -0.15514,0.44602 -0.46542,1.33807c-0.31028,0.89205 -0.46542,3.38074 -0.46542,7.46606c0,4.08533 0.31028,7.02004 0.93083,8.80414c0.62056,1.7841 1.70653,2.67615 3.25792,2.67615c1.55139,0 2.63736,-0.89205 3.25792,-2.67615c0.62056,-1.7841 0.93083,-4.71881 0.93083,-8.80414c0,-4.08533 -0.31028,-7.02004 -0.93083,-8.80414c-0.62056,-1.7841 -1.70653,-2.67615 -3.25792,-2.67615c-1.55139,0 -2.63736,0.89205 -3.25792,2.67615z" data-paper-data="{&quot;elementType&quot;:&quot;letter&quot;,&quot;baseline&quot;:48.800000000000004,&quot;baselineProportion&quot;:0.9799196787148594,&quot;fontSize&quot;:100}"></path><path d="M254.56367,141.93277c2.74079,-4.08533 6.12799,-6.12799 10.1616,-6.12799c1.91338,0 3.67162,0.46542 5.27473,1.39625l-1.86167,12.7214c-2.06852,-1.44796 -4.3956,-2.17195 -6.98125,-2.17195c-2.48222,0 -4.1629,1.03426 -5.04202,3.10278c-0.51713,1.29282 -0.85326,2.53394 -1.0084,3.72334l-1.47382,19.08209h-13.96251l-2.32708,-36.76794h15.28119z" data-paper-data="{&quot;elementType&quot;:&quot;letter&quot;,&quot;baseline&quot;:48.800000000000004,&quot;baselineProportion&quot;:1,&quot;fontSize&quot;:100}"></path></g></g><g data-paper-data="{&quot;baseline&quot;:62,&quot;elementType&quot;:&quot;row&quot;}"><g data-paper-data="{&quot;baselineProportion&quot;:0.9841269841269841,&quot;fontSize&quot;:100,&quot;baseline&quot;:62,&quot;elementType&quot;:&quot;word&quot;}"><path d="M97.71816,196.00083h14.04008c0,6.10213 -0.60763,11.89399 -1.82288,17.37557c-1.21526,5.48158 -2.68908,9.95475 -4.42146,13.41952c-1.73239,3.46477 -3.4777,6.47705 -5.23594,9.03685c-1.75824,2.55979 -3.25792,4.38268 -4.49903,5.46865l-1.7841,1.70653h-17.60827l-5.81771,-18.84939c-0.72398,2.43051 -1.84874,5.21008 -3.37427,8.33872c-1.52553,3.12864 -2.883,5.64964 -4.0724,7.56303l-1.7841,2.94764h-16.83258l-14.50549,-47.00711h24.58953l4.42146,30.56238c0.77569,-0.77569 1.74531,-2.18487 2.90886,-4.22754c1.16354,-2.04266 2.14609,-4.13704 2.94764,-6.28313c0.80155,-2.14609 1.55139,-5.01616 2.24952,-8.61021c0.69813,-3.59405 1.07304,-7.40789 1.12476,-11.4415h16.67744l4.42146,30.56238c3.61991,-4.55074 6.12799,-10.91144 7.52424,-19.08209c0.56884,-3.61991 0.85326,-7.44667 0.85326,-11.48028z" data-paper-data="{&quot;elementType&quot;:&quot;letter&quot;,&quot;baseline&quot;:60.6,&quot;baselineProportion&quot;:1,&quot;fontSize&quot;:100}"></path><path d="M129.67679,243.78364c-3.9819,0 -7.25275,-1.16354 -9.81254,-3.49063c-2.55979,-2.32708 -3.83969,-5.62379 -3.83969,-9.89011c0,-4.26632 1.44796,-7.3691 4.34389,-9.30834c2.89593,-1.93924 6.38655,-2.90886 10.47188,-2.90886c4.08533,0 7.62767,0.64641 10.62702,1.93924c-0.67227,-4.29218 -3.3872,-6.43827 -8.1448,-6.43827c-2.17195,0 -4.86102,0.43956 -8.06723,1.31868l-1.93924,-6.98125c4.65417,-1.91338 9.38591,-2.87007 14.19522,-2.87007c13.85908,0 20.78862,5.89528 20.78862,17.68584c0,4.03361 -0.46542,9.61862 -1.39625,16.75501l-0.38785,3.41306h-12.79897l-0.46542,-4.26632c-3.51648,3.36134 -8.04137,5.04202 -13.57466,5.04202M136.65805,234.16502c2.32708,0 4.31803,-0.64641 5.97285,-1.93924l-0.46542,-5.11959c-1.29282,-0.87912 -2.72786,-1.31868 -4.30511,-1.31868c-1.57725,0 -2.87007,0.38785 -3.87847,1.16354c-1.0084,0.77569 -1.51261,1.73239 -1.51261,2.87007c0,1.13769 0.38785,2.14609 1.16354,3.02521c0.77569,0.87912 1.7841,1.31868 3.02521,1.31868z" data-paper-data="{&quot;elementType&quot;:&quot;letter&quot;,&quot;baseline&quot;:48.800000000000004,&quot;baselineProportion&quot;:0.9799196787148594,&quot;fontSize&quot;:100}"></path><path d="M183.51002,229.20057c-0.05171,2.99935 1.0084,4.49903 3.18035,4.49903c0.62056,0 1.37039,-0.28442 2.24952,-0.85326l1.62896,7.52424c-0.31028,0.25856 -0.73691,0.58177 -1.2799,0.96962c-0.54299,0.38785 -1.70653,0.89205 -3.49063,1.51261c-1.7841,0.62056 -3.63284,0.93083 -5.54622,0.93083c-3.51648,0 -6.38655,-1.20233 -8.61021,-3.60698c-2.22366,-2.40465 -3.41306,-5.46865 -3.5682,-9.19198l-0.69813,-14.66063h-5.97285l0.93083,-10.08403h4.65417l-0.31028,-7.60181l18.38397,-3.72334l-0.54299,11.32515h4.49903l0.93083,10.08403h-5.89528z" data-paper-data="{&quot;elementType&quot;:&quot;letter&quot;,&quot;baseline&quot;:62,&quot;baselineProportion&quot;:0.9841269841269841,&quot;fontSize&quot;:100}"></path><path d="M215.46865,243.78364c-5.84357,0 -10.74337,-1.6936 -14.69942,-5.0808c-3.95604,-3.3872 -5.93407,-8.36458 -5.93407,-14.93213c0,-4.13704 1.0084,-7.65352 3.02521,-10.54945c3.67162,-5.37815 9.36005,-8.06723 17.06529,-8.06723c5.89528,0 10.39431,1.17647 13.49709,3.52941c3.10278,2.35294 4.65417,5.59793 4.65417,9.73497c0,3.20621 -1.2799,5.80478 -3.83969,7.79573c-2.55979,1.99095 -6.29606,2.98643 -11.20879,2.98643c-2.01681,0 -3.82676,-0.15514 -5.42986,-0.46542l-0.85326,-0.15514c0.25856,1.86167 1.07304,3.24499 2.44344,4.14997c1.37039,0.90498 3.01228,1.35747 4.92566,1.35747c3.15449,0 5.84357,-0.95669 8.06723,-2.87007l4.80931,5.81771c-0.82741,0.98255 -1.80995,1.90045 -2.94764,2.75372c-1.13769,0.85326 -2.94764,1.73239 -5.42986,2.63736c-2.48222,0.90498 -5.19716,1.35747 -8.1448,1.35747M221.75178,217.72029c0,0 0,-0.25856 0,-0.77569c0,-0.51713 -0.40078,-1.11183 -1.20233,-1.7841c-0.80155,-0.67227 -1.90045,-1.0084 -3.2967,-1.0084c-1.39625,0 -2.702,0.62056 -3.91726,1.86167c-1.21526,1.24111 -1.82288,2.71493 -1.82288,4.42146c1.13769,0.51713 2.62443,0.77569 4.46025,0.77569c1.83581,0 3.25792,-0.32321 4.26632,-0.96962c1.0084,-0.64641 1.51261,-1.48675 1.51261,-2.52101z" data-paper-data="{&quot;elementType&quot;:&quot;letter&quot;,&quot;baseline&quot;:48.800000000000004,&quot;baselineProportion&quot;:0.9799196787148594,&quot;fontSize&quot;:100}"></path><path d="M254.56367,211.28202c2.74079,-4.08533 6.12799,-6.12799 10.1616,-6.12799c1.91338,0 3.67162,0.46542 5.27473,1.39625l-1.86167,12.7214c-2.06852,-1.44796 -4.3956,-2.17195 -6.98125,-2.17195c-2.48222,0 -4.1629,1.03426 -5.04202,3.10278c-0.51713,1.29282 -0.85326,2.53394 -1.0084,3.72334l-1.47382,19.08209h-13.96251l-2.32708,-36.76794h15.28119z" data-paper-data="{&quot;elementType&quot;:&quot;letter&quot;,&quot;baseline&quot;:48.800000000000004,&quot;baselineProportion&quot;:1,&quot;fontSize&quot;:100}"></path></g></g></g></g></g></svg>